<?xml version="1.0" standalone="no"?>
<!DOCTYPE svg PUBLIC "-//W3C//DTD SVG 20010904//EN"
 "http://www.w3.org/TR/2001/REC-SVG-20010904/DTD/svg10.dtd">
<svg version="1.0" xmlns="http://www.w3.org/2000/svg"
 width="2096.000000pt" height="1317.000000pt" viewBox="0 0 2096.000000 1317.000000"
 preserveAspectRatio="xMidYMid meet">
<metadata>
Created by potrace 1.16, written by Peter Selinger 2001-2019
</metadata>
<g transform="translate(0.000000,1317.000000) scale(0.100000,-0.100000)"
fill="#000000" stroke="none">
<path d="M18402 12042 c-369 -132 -687 -901 -766 -1857 -46 -553 -24 -1099 70
-1745 26 -180 80 -473 163 -886 169 -842 186 -964 178 -1274 -5 -223 -18 -300
-66 -419 -142 -344 -484 -485 -986 -406 -299 48 -650 205 -1045 468 -168 112
-330 236 -330 252 0 8 14 97 30 197 116 703 118 1377 5 1934 -137 675 -408
1216 -878 1750 -592 673 -1548 1279 -2566 1628 -621 213 -1224 317 -1837 317
-359 0 -654 -28 -980 -95 -1334 -273 -2461 -1071 -3242 -2298 -338 -530 -621
-1138 -995 -2138 -461 -1230 -701 -1641 -1116 -1907 -77 -50 -260 -137 -353
-167 -194 -65 -539 -136 -676 -139 l-77 -2 -7 450 c-7 484 -20 795 -44 1080
-16 194 -24 263 -79 690 -33 250 -36 297 -32 440 6 219 35 311 199 638 221
443 304 655 382 978 81 333 111 639 103 1039 -10 482 -70 757 -178 814 -36 19
-36 19 -70 0 -66 -39 -107 -129 -144 -314 -45 -223 -65 -430 -90 -945 -26
-530 -39 -705 -52 -692 -8 9 -32 190 -42 327 -6 74 -18 322 -26 550 -29 784
-45 935 -103 981 -32 25 -54 24 -79 -3 -36 -40 -52 -83 -73 -199 -37 -210 -43
-358 -42 -1034 0 -396 -3 -636 -9 -613 -16 68 -38 380 -49 688 -25 728 -31
867 -41 963 -20 199 -52 287 -104 287 -45 0 -67 -35 -95 -154 -44 -183 -51
-323 -60 -1086 -5 -444 -13 -750 -19 -790 -26 -149 -30 -152 -59 -42 -62 232
-91 514 -137 1362 -26 490 -37 591 -66 639 -21 35 -52 40 -81 14 -38 -34 -99
-301 -133 -583 -71 -594 -81 -1241 -24 -1580 36 -216 86 -343 257 -655 120
-217 152 -328 172 -590 18 -236 1 -485 -100 -1435 -47 -442 -51 -765 -10 -925
30 -117 82 -214 149 -278 113 -108 222 -144 477 -159 l181 -11 7 -476 c10
-702 33 -1184 91 -1916 56 -703 71 -1171 46 -1405 -30 -270 -100 -395 -230
-408 -99 -9 -284 58 -406 148 -145 107 -227 268 -271 531 -13 77 -17 257 -24
1019 -5 509 -13 986 -19 1060 -37 460 -83 779 -151 1044 -130 506 -333 881
-644 1191 -136 136 -238 218 -425 342 -145 97 -441 255 -539 287 -49 17 -55
17 -77 2 -32 -21 -33 -67 -2 -121 31 -55 123 -121 345 -250 322 -188 483 -304
644 -467 393 -398 617 -986 692 -1823 31 -343 37 -507 46 -1330 10 -901 13
-958 65 -1153 66 -249 191 -405 417 -518 161 -81 320 -105 437 -68 105 34 192
162 231 339 48 221 48 705 0 1332 -34 427 -79 1133 -89 1388 -12 277 -19 1250
-10 1260 4 3 64 15 135 26 405 62 653 134 893 260 145 76 271 171 392 296 278
286 486 674 809 1504 397 1020 592 1463 858 1944 507 917 1174 1626 1962 2088
203 118 514 266 744 352 779 292 1679 362 2562 200 1039 -191 2084 -680 2894
-1354 166 -138 469 -445 591 -598 436 -546 680 -1121 773 -1815 48 -359 50
-845 5 -1288 -15 -154 -59 -444 -68 -453 -14 -14 -231 182 -492 442 -340 341
-508 540 -816 966 -80 111 -121 181 -196 337 -214 444 -460 785 -819 1134
-392 381 -840 688 -1328 909 -965 438 -1981 512 -2875 211 -702 -237 -1309
-694 -1827 -1376 -223 -294 -381 -547 -728 -1170 -273 -490 -438 -741 -607
-920 -87 -92 -256 -230 -449 -365 -249 -175 -340 -285 -396 -482 -19 -67 -22
-102 -22 -243 0 -176 8 -244 55 -435 138 -558 547 -1426 985 -2090 446 -677
904 -1096 1529 -1399 733 -356 2075 -680 3012 -727 1076 -55 1992 261 2873
990 148 122 495 469 632 632 505 597 900 1285 1203 2094 151 403 244 719 355
1213 7 29 18 52 25 52 7 0 57 -32 111 -71 786 -570 1440 -768 1944 -590 113
40 184 85 275 176 91 92 134 159 182 285 52 140 67 244 67 480 0 288 -25 476
-154 1145 -134 699 -174 944 -216 1338 -22 204 -27 306 -31 649 -7 542 18 865
97 1274 121 621 353 1108 565 1190 64 24 110 9 168 -56 137 -152 218 -579 246
-1300 6 -140 15 -523 21 -850 6 -327 15 -802 20 -1055 18 -850 31 -1987 28
-2324 l-3 -334 -110 -37 c-171 -57 -262 -108 -368 -209 -217 -206 -339 -525
-436 -1136 -72 -455 -224 -1953 -242 -2390 -35 -829 95 -1149 480 -1181 102
-9 230 10 361 52 173 55 286 137 336 242 58 123 73 313 63 827 -33 1743 -33
1726 -20 2660 8 555 16 924 22 931 16 20 165 42 629 94 518 58 798 98 1035
147 230 47 275 75 190 118 -37 19 -59 20 -295 19 -170 -1 -375 -10 -615 -28
-472 -35 -548 -42 -753 -68 -94 -12 -175 -18 -180 -14 -4 4 -10 638 -14 1409
-9 1943 -27 2994 -58 3452 -40 571 -127 916 -268 1067 -84 90 -177 116 -280
80z m-15124 -789 c49 -117 71 -276 79 -578 14 -570 -74 -1072 -273 -1554 -20
-47 -107 -228 -193 -401 -171 -343 -210 -437 -242 -592 -30 -148 -23 -302 34
-698 51 -348 70 -517 92 -815 17 -224 35 -802 35 -1147 l0 -228 -132 0 c-336
0 -475 77 -555 305 l-28 80 0 315 c1 256 5 353 23 520 81 739 107 1108 99
1390 -10 322 -50 472 -202 750 -205 376 -245 521 -266 987 -18 375 2 924 46
1253 19 149 53 339 64 358 10 18 17 -153 30 -828 6 -287 17 -560 26 -650 33
-336 85 -551 152 -629 32 -37 39 -41 83 -41 42 0 52 4 77 33 67 76 85 234 81
712 -7 883 -3 1214 15 1335 43 272 54 138 67 -805 12 -773 27 -985 81 -1130
22 -58 51 -90 91 -100 23 -6 34 -1 62 27 59 59 59 61 61 983 1 790 6 968 27
947 5 -5 13 -245 18 -533 14 -772 28 -988 76 -1199 26 -118 75 -171 142 -154
100 25 120 140 147 874 25 672 44 912 85 1090 28 117 49 170 70 170 4 0 17
-21 28 -47z m7312 -956 c811 -123 1513 -436 2180 -971 128 -103 502 -468 581
-566 l43 -55 -54 50 c-30 28 -107 99 -171 158 -548 510 -1162 816 -1884 941
-230 39 -346 48 -645 48 -307 0 -442 -10 -705 -53 -1139 -187 -2100 -740
-2700 -1554 -263 -357 -458 -763 -570 -1190 -85 -326 -116 -566 -116 -905 -1
-355 36 -633 127 -956 231 -826 772 -1572 1529 -2111 614 -436 1312 -679 2035
-709 755 -30 1583 229 2260 707 965 681 1606 1784 1767 3044 13 97 17 209 17
440 0 341 -9 446 -65 711 -16 81 -28 148 -26 150 2 2 51 -55 108 -128 322
-411 666 -760 1148 -1164 l26 -22 -23 -118 c-96 -493 -284 -1099 -492 -1584
-520 -1210 -1300 -2162 -2240 -2736 -218 -133 -582 -299 -825 -377 -409 -131
-733 -178 -1220 -178 -476 0 -938 57 -1515 187 -862 195 -1484 427 -1956 730
-327 210 -658 529 -931 894 -412 555 -889 1469 -1090 2090 -83 257 -116 434
-116 620 0 158 17 241 68 339 52 98 111 160 263 273 76 56 171 127 212 157
103 78 267 237 354 345 139 173 287 408 496 791 343 627 506 892 736 1200 251
335 559 648 858 870 439 326 946 540 1478 625 224 35 283 39 593 35 257 -3
323 -7 465 -28z m480 -522 c765 -92 1406 -393 2016 -946 287 -259 738 -804
838 -1011 78 -161 161 -464 202 -733 21 -139 30 -605 15 -788 -57 -679 -314
-1394 -717 -2002 -235 -353 -550 -686 -914 -966 -322 -248 -766 -478 -1175
-609 -158 -50 -365 -97 -560 -126 -163 -25 -208 -27 -470 -28 -267 0 -304 2
-465 27 -585 90 -1100 303 -1599 660 -390 280 -725 625 -986 1017 -321 483
-504 972 -575 1533 -35 277 -26 696 21 992 82 515 326 1081 648 1500 188 245
466 513 719 694 259 185 610 376 902 491 427 168 882 273 1365 313 114 10 605
-2 735 -18z m7850 -5187 c1 -640 5 -1323 10 -1518 19 -734 23 -1300 11 -1426
-25 -251 -68 -327 -226 -400 -176 -80 -461 -97 -585 -34 -154 79 -220 322
-207 765 11 337 56 744 227 2045 158 1202 293 1550 661 1699 41 16 82 30 92
30 16 1 17 -61 17 -1161z"/>
</g>
</svg>
